<?xml version="1.0" encoding="iso-8859-1"?>
<!-- Generator: Adobe Illustrator 16.0.0, SVG Export Plug-In . SVG Version: 6.00 Build 0)  -->
<!DOCTYPE svg PUBLIC "-//W3C//DTD SVG 1.1//EN" "http://www.w3.org/Graphics/SVG/1.1/DTD/svg11.dtd">
<svg version="1.1" id="Capa_1" xmlns="http://www.w3.org/2000/svg" xmlns:xlink="http://www.w3.org/1999/xlink" x="0px" y="0px"
	 width="41.205px" height="41.204px" viewBox="0 0 41.205 41.204" style="enable-background:new 0 0 41.205 41.204;"
	 xml:space="preserve">
<g>
	<path d="M33.349,2.974H28.24c-0.517-0.722-1.349-1.194-2.296-1.218C25.548,0.73,24.552,0,23.385,0h-5.568
		c-1.167,0-2.16,0.729-2.559,1.756c-0.947,0.022-1.779,0.496-2.292,1.218H7.853c-0.925,0-1.678,0.752-1.678,1.678v34.874
		c0,0.927,0.753,1.679,1.678,1.679h25.496c0.927,0,1.68-0.752,1.68-1.679V4.652C35.029,3.726,34.276,2.974,33.349,2.974z
		 M31.669,37.846H9.534V6.331h3.434c0.525,0.738,1.385,1.222,2.361,1.222h10.547c0.977,0,1.838-0.482,2.361-1.222h3.436v31.517
		h-0.004V37.846z M28.115,16.075c0.562-0.158,1.193-0.022,1.641,0.422c0.654,0.653,0.654,1.717,0,2.373l-7,6.998
		c-0.327,0.327-0.756,0.491-1.188,0.491c-0.43,0-0.857-0.164-1.188-0.491l-4.312-4.312c-0.655-0.656-0.655-1.721,0-2.375
		c0.654-0.655,1.718-0.655,2.374,0l3.124,3.125l4.716-4.713v-0.88H14.79v10.828h11.493v-3.98l1.832-1.832v6.729
		c0,0.504-0.41,0.914-0.916,0.914H13.873c-0.506,0-0.914-0.41-0.914-0.914v-12.66c0-0.504,0.408-0.913,0.914-0.913h13.324
		c0.506,0,0.916,0.409,0.916,0.913v0.277H28.115z"/>
</g>
<g>
</g>
<g>
</g>
<g>
</g>
<g>
</g>
<g>
</g>
<g>
</g>
<g>
</g>
<g>
</g>
<g>
</g>
<g>
</g>
<g>
</g>
<g>
</g>
<g>
</g>
<g>
</g>
<g>
</g>
</svg>
