<?xml version="1.0" encoding="iso-8859-1"?>
<!-- Generator: Adobe Illustrator 16.0.0, SVG Export Plug-In . SVG Version: 6.00 Build 0)  -->
<!DOCTYPE svg PUBLIC "-//W3C//DTD SVG 1.1//EN" "http://www.w3.org/Graphics/SVG/1.1/DTD/svg11.dtd">
<svg version="1.1" id="Capa_1" xmlns="http://www.w3.org/2000/svg" xmlns:xlink="http://www.w3.org/1999/xlink" x="0px" y="0px"
	 width="191.939px" height="191.939px" viewBox="0 0 191.939 191.939" style="enable-background:new 0 0 191.939 191.939;"
	 xml:space="preserve">
<g>
	<path d="M173.49,93.018C151.514,60.431,108.293,20.766,65.62,29.047c0.051-0.113,0.111-0.223,0.16-0.336
		c0.6-1.376-0.823-3.598-2.391-2.391c-0.853,0.656-1.635,1.427-2.376,2.247c0.728-1.791-1.686-3.304-2.735-1.534
		c-2.446,4.126-5.321,7.854-9.324,10.573c-3.373,2.291-7.298,2.454-11.16,2.98c-9.681-9.25-15.925-21.24-19.83-34.248
		c-0.373-1.241-1.691-2.074-2.977-1.689C-14.769,13.544,5.41,43.283,26.974,55.21c-7.196,7.056-12.458,15.177-11.833,25.891
		c0.041,0.709,0.309,1.304,0.703,1.761c-29.241,62.392,85.446,114.644,134.87,102.85c1.584-0.378,2.211-1.983,1.954-3.441
		c-1.287-7.284-0.803-14.5-0.406-21.751c0.517,0.036,1.054-0.011,1.615-0.262c11.06-4.955,31.201-9.41,36.763-21.733
		C196.684,125.132,180.073,102.778,173.49,93.018z M186.157,136.635c-1.433,8.767-24.452,13.686-33.619,17.366
		c0.026-1.136,0.048-2.273,0.037-3.413c-0.033-3.394-4.962-3.312-5.207,0c-0.684,9.173-2.173,19.015-0.827,28.175
		c0.747,5.086-18.288,3.196-21.783,2.948c-19.493-1.382-38.626-8.708-55.733-17.738c-32.429-17.116-58.696-47.163-46.998-84.036
		c2.274-3.408,5.304-7.112,9.24-7.589c5.107-0.616,6.609,8.792,8.394,11.916c0.827,1.447,3.146,0.821,3.128-0.847
		c-0.06-5.74-4.025-14.641-10.598-15.453c-3.362-0.416-6.315,0.979-8.92,3.062c0.707-1.736,1.514-3.451,2.554-5.166
		c1.752-2.887,3.946-5.533,5.8-8.364c4.124,1.757,8.173,2.768,11.801,2.737c3.011-0.025,2.894-4.312,0-4.592
		c-2.829-0.271-6.34-1.518-10.07-3.419c-0.349-0.476-0.902-0.783-1.507-0.795C14.24,41.764-6.903,18.38,14.128,10.085
		c4.132,12.487,10.264,24.011,19.285,33.294c-0.326,1.629,0.359,3.498,2.207,3.77c0.651,0.095,1.291,0.139,1.925,0.162
		c1.455,1.264,2.957,2.489,4.548,3.642c2.748,1.99,5.439-2.612,2.663-4.556c-0.102-0.072-0.19-0.156-0.292-0.229
		c4.791-1.789,8.871-5.473,12.03-9.774c-1.148,3.39-1.561,7.016-0.931,10.371c1.252,6.671,5.267,11.444,10.649,14.856
		c-10.828-1.235-23.217,5.376-22.664,17.165c0.136,2.892,4.05,2.747,4.385,0c0.568-4.663,3.034-8.05,7.178-10.151
		c5.201-2.637,10.69-1.099,16.108-1.794c1.572-0.202,2.795-2.438,1.261-3.453c0.459-0.653,0.458-1.601-0.465-2.177
		c-5.517-3.442-9.675-7.691-11.512-14.043c-1.452-5.021,0.561-9.271,2.769-13.465c38.618-6.282,72.576,24.743,95.917,51.997
		C169.141,97.32,188.863,120.075,186.157,136.635z"/>
</g>
<g>
</g>
<g>
</g>
<g>
</g>
<g>
</g>
<g>
</g>
<g>
</g>
<g>
</g>
<g>
</g>
<g>
</g>
<g>
</g>
<g>
</g>
<g>
</g>
<g>
</g>
<g>
</g>
<g>
</g>
</svg>
