<?xml version="1.0" encoding="iso-8859-1"?>
<!-- Generator: Adobe Illustrator 16.0.0, SVG Export Plug-In . SVG Version: 6.00 Build 0)  -->
<!DOCTYPE svg PUBLIC "-//W3C//DTD SVG 1.1//EN" "http://www.w3.org/Graphics/SVG/1.1/DTD/svg11.dtd">
<svg version="1.1" id="Capa_1" xmlns="http://www.w3.org/2000/svg" xmlns:xlink="http://www.w3.org/1999/xlink" x="0px" y="0px"
	 width="471.943px" height="471.943px" viewBox="0 0 471.943 471.943" style="enable-background:new 0 0 471.943 471.943;"
	 xml:space="preserve">
<g>
	<g>
		<path d="M225.853,255.511V152.571c5.974-0.939,10.543-6.109,10.543-12.348v-12.232c0-4.324-2.234-8.341-5.908-10.621
			L124.79,51.769c-4.037-2.506-9.146-2.506-13.184,0l-105.698,65.6C2.234,119.649,0,123.666,0,127.99v12.232
			c0,6.238,4.568,11.408,10.542,12.348v102.94c-4.688,1.803-8.014,6.349-8.014,11.67v35.539c0,6.903,5.596,12.5,12.5,12.5h206.34
			c6.904,0,12.5-5.597,12.5-12.5v-35.537C233.868,261.86,230.541,257.313,225.853,255.511z M208.868,290.222H27.528v-11.369
			c4.688-1.803,8.014-6.348,8.014-11.67V140.223c0-3.677-1.587-6.981-4.113-9.269l86.769-53.853l86.769,53.852
			c-2.526,2.288-4.113,5.593-4.113,9.27v126.959c0,5.322,3.327,9.867,8.015,11.67L208.868,290.222L208.868,290.222z"/>
		<path d="M90.52,226.075H66.792c-3.303,0-5.98,2.678-5.98,5.98v23.729c0,3.303,2.678,5.98,5.98,5.98H90.52
			c3.303,0,5.981-2.678,5.981-5.98v-23.729C96.501,228.752,93.824,226.075,90.52,226.075z"/>
		<path d="M90.52,147.335H66.792c-3.303,0-5.98,2.678-5.98,5.979v23.729c0,3.303,2.678,5.979,5.98,5.979H90.52
			c3.303,0,5.981-2.678,5.981-5.979v-23.729C96.501,150.013,93.824,147.335,90.52,147.335z"/>
		<path d="M169.604,147.335h-23.728c-3.303,0-5.98,2.678-5.98,5.979v23.729c0,3.303,2.678,5.979,5.98,5.979h23.728
			c3.303,0,5.98-2.678,5.98-5.979v-23.729C175.584,150.013,172.907,147.335,169.604,147.335z"/>
		<path d="M169.604,226.075h-23.728c-3.303,0-5.98,2.678-5.98,5.98v23.729c0,3.303,2.678,5.98,5.98,5.98h23.728
			c3.303,0,5.98-2.678,5.98-5.98v-23.729C175.584,228.752,172.907,226.075,169.604,226.075z"/>
		<path d="M471.943,247.056v-12.231c0-4.324-2.232-8.341-5.906-10.621l-105.699-65.602c-4.037-2.506-9.146-2.506-13.184,0
			l-105.699,65.601c-3.674,2.28-5.908,6.297-5.908,10.621v12.232c0,6.238,4.569,11.408,10.542,12.348v102.939
			c-4.688,1.803-8.014,6.35-8.014,11.672v35.539c0,6.902,5.596,12.5,12.5,12.5h206.34c6.902,0,12.5-5.598,12.5-12.5v-35.539
			c0-5.322-3.328-9.869-8.016-11.672V259.403C467.375,258.464,471.943,253.294,471.943,247.056z M444.416,397.054h-181.34v-11.367
			c4.688-1.803,8.014-6.35,8.014-11.672V247.056c0-3.676-1.586-6.981-4.113-9.27l86.77-53.853l86.77,53.853
			c-2.527,2.287-4.113,5.594-4.113,9.27v126.959c0,5.322,3.326,9.869,8.014,11.672V397.054L444.416,397.054z"/>
		<path d="M326.068,332.908H302.34c-3.303,0-5.98,2.679-5.98,5.979v23.729c0,3.304,2.678,5.979,5.98,5.979h23.729
			c3.303,0,5.98-2.676,5.98-5.979v-23.729C332.049,335.585,329.371,332.908,326.068,332.908z"/>
		<path d="M326.068,254.169H302.34c-3.303,0-5.98,2.678-5.98,5.979v23.73c0,3.303,2.678,5.979,5.98,5.979h23.729
			c3.303,0,5.98-2.679,5.98-5.979v-23.73C332.049,256.847,329.371,254.169,326.068,254.169z"/>
		<path d="M405.152,254.169h-23.729c-3.303,0-5.98,2.678-5.98,5.979v23.73c0,3.303,2.678,5.979,5.98,5.979h23.729
			c3.303,0,5.98-2.679,5.98-5.979v-23.73C411.133,256.847,408.455,254.169,405.152,254.169z"/>
		<path d="M405.152,332.908h-23.729c-3.303,0-5.98,2.679-5.98,5.979v23.729c0,3.304,2.678,5.979,5.98,5.979h23.729
			c3.303,0,5.98-2.676,5.98-5.979v-23.729C411.133,335.585,408.455,332.908,405.152,332.908z"/>
	</g>
</g>
<g>
</g>
<g>
</g>
<g>
</g>
<g>
</g>
<g>
</g>
<g>
</g>
<g>
</g>
<g>
</g>
<g>
</g>
<g>
</g>
<g>
</g>
<g>
</g>
<g>
</g>
<g>
</g>
<g>
</g>
</svg>
