<?xml version="1.0" encoding="iso-8859-1"?>
<!-- Generator: Adobe Illustrator 16.0.0, SVG Export Plug-In . SVG Version: 6.00 Build 0)  -->
<!DOCTYPE svg PUBLIC "-//W3C//DTD SVG 1.1//EN" "http://www.w3.org/Graphics/SVG/1.1/DTD/svg11.dtd">
<svg version="1.1" id="Capa_1" xmlns="http://www.w3.org/2000/svg" xmlns:xlink="http://www.w3.org/1999/xlink" x="0px" y="0px"
	 width="195.516px" height="195.516px" viewBox="0 0 195.516 195.516" style="enable-background:new 0 0 195.516 195.516;"
	 xml:space="preserve">
<g>
	<path d="M164.115,115.332c-14.185-25.196-44.102-73.999-78.783-71.788c5.048-10.472,7.108-24.964-3.741-32.167
		c-11.873-7.884-19.49,3.57-22.549,14.094C47.2,15.232,30.403-5.668,14.465,1.448c-8.64,3.858-7.493,18.088-3.986,24.67
		c5.203,9.764,17.595,13.488,28.167,16.757c-6.477,1.916-13.548,5.504-10.782,12.586c3.741,9.58,18.286,7.396,27.345,4.814
		c-3.452,5.82-4.998,13.182-4.278,21.536c1.643,19.074,14.653,33.719,27.463,46.666c17.108,17.292,35.624,33.407,55.228,47.805
		c10.302,7.566,29.999,23.334,44.203,18.241C203.773,185.218,170.961,127.493,164.115,115.332z M40.868,55.166
		c-4.689,0.567-6.245-1.664-4.67-6.693c3.211-1.629,6.579-2.777,10.105-3.443c1.916-0.479,1.782-3.189,0-3.734
		c-9.762-2.989-20.138-7.505-27.985-14.146c-5.342-4.521-7.523-16-0.995-20.812c3.387-2.496,9.576,1.056,12.498,2.593
		c11.349,5.971,19.354,16.026,29.481,23.532c1.328,0.984,3.616-0.008,3.914-1.593c1.379-7.316,6.874-23.475,16.838-14.493
		c8.529,7.688,0.991,21.538-4.013,28.642c-0.508,0.721-0.697,1.44-0.651,2.106c-5.994,0.961-11.015,3.318-14.933,6.788
		c-0.595-0.491-1.402-0.747-2.419-0.478C52.273,54.958,46.796,55.682,40.868,55.166z M178.275,185.754
		c-4.754,9.725-25.992-3.444-45.678-18.689c0.325-0.316,0.564-0.746,0.603-1.322c0.542-8.216,5.11-16.083,11.952-20.697
		c2.015-1.359,0.289-4.088-1.858-3.18c-8.98,3.799-13.678,13.192-13.983,22.625c-12.53-9.927-23.998-20.232-29.58-25.359
		c1.46-8.127,5.896-14.816,12.209-20.531c1.589-1.439-0.69-3.53-2.292-2.292c-6.833,5.28-11.101,12.254-12.623,20.318
		c-0.06-0.056-0.146-0.136-0.199-0.186c-2.914-2.725-5.85-5.49-8.757-8.301c3.059-13.775,9.463-26.371,18.299-37.399
		c1.29-1.61-0.968-3.918-2.292-2.292c-9.066,11.137-15.432,23.907-17.723,38.029c-3.217-3.155-6.378-6.383-9.387-9.729
		c0.268-6.495,0.99-12.756,3.962-18.726c1.149-2.309-2.419-4.296-3.416-1.997c-2.482,5.723-3.26,11.474-3.402,17.459
		c-2.427-2.864-4.734-5.813-6.858-8.882c-5.872-8.482-8.913-18.723-9.055-28.968c-0.213-15.329,12.19-22.019,25.308-24.835
		c0.624-0.134,1.04-0.474,1.281-0.903c27.498-1.148,52.079,36.085,64.83,55.468c9.259,14.076,17.169,29.159,23.359,44.828
		C176.782,159.832,183.276,175.522,178.275,185.754z"/>
	<path d="M137.334,117.057c-11.418,8.091-21.286,19.443-22.838,33.827c-0.228,2.115,3.193,2.517,3.669,0.497
		c3.032-12.863,10.932-22.555,21.803-29.817C142.769,119.693,140.07,115.118,137.334,117.057z"/>
</g>
<g>
</g>
<g>
</g>
<g>
</g>
<g>
</g>
<g>
</g>
<g>
</g>
<g>
</g>
<g>
</g>
<g>
</g>
<g>
</g>
<g>
</g>
<g>
</g>
<g>
</g>
<g>
</g>
<g>
</g>
</svg>
