<?xml version="1.0" encoding="iso-8859-1"?>
<!-- Generator: Adobe Illustrator 16.0.0, SVG Export Plug-In . SVG Version: 6.00 Build 0)  -->
<!DOCTYPE svg PUBLIC "-//W3C//DTD SVG 1.1//EN" "http://www.w3.org/Graphics/SVG/1.1/DTD/svg11.dtd">
<svg version="1.1" id="Capa_1" xmlns="http://www.w3.org/2000/svg" xmlns:xlink="http://www.w3.org/1999/xlink" x="0px" y="0px"
	 width="187.228px" height="187.228px" viewBox="0 0 187.228 187.228" style="enable-background:new 0 0 187.228 187.228;"
	 xml:space="preserve">
<g>
	<path d="M145.281,83.264c0.607-0.807,0.782-1.979-0.047-2.99C114.238,42.512,53.105,0.202,1.774,13.761
		c-1.028,0.272-1.634,1.197-1.689,2.219c-2.22,41.4,39.667,76.825,66.352,103.564c9.761,21.954,30.698,41.735,50.07,49.797
		c15.812,6.581,48.252,11.335,62.755-0.686c3.519-2.916,4.852-6.063,4.687-9.246c0.658-0.18,1.238-0.65,1.472-1.574
		C193.556,125.646,173.185,96.627,145.281,83.264z M126.815,69.048c4.304,3.862,8.415,7.741,12.291,11.566
		c-5.093-1.944-10.366-3.393-15.721-4.237c-1.87-0.295-3.388,2.339-1.395,3.309c10.478,5.096,18.857,12.555,24.502,21.671
		c-0.36-0.304-0.845-0.474-1.429-0.338c-4.215,0.971-7.634,3.377-10.337,6.522c-3.406-3.924-6.899-7.75-10.494-11.458
		c2.416-2.41,4.901-4.847,7.207-7.541c1.016-1.186-0.268-3.092-1.721-2.23c-3.026,1.793-5.931,4.035-8.582,6.603
		c-3.965-3.966-8.056-7.783-12.228-11.499c4.933-4.473,10.519-8.24,16.89-10.976C126.51,70.134,126.788,69.606,126.815,69.048z
		 M152.451,130.091c-4.819-6.851-9.913-13.404-15.234-19.702c2.667-2.639,5.936-4.312,9.116-6.366
		c0.647-0.419,0.842-1.068,0.738-1.663c5.163,8.756,7.869,18.965,7.503,30.069c-0.007-0.003-0.015-0.006-0.021-0.009
		c-0.695-0.278-1.416-0.502-2.12-0.763C152.771,131.25,152.866,130.681,152.451,130.091z M127.223,125.159
		c-14.104-2.68-28.371-4.84-40.677-10.577c1.156-2.706,2.405-5.382,3.751-8.008c5.938,3.893,11.989,7.559,18.139,10.854
		c-0.065,0.707-0.146,1.412-0.161,2.123c-0.038,1.876,2.809,1.856,2.897,0c0.01-0.216,0.051-0.407,0.066-0.62
		c2.419,1.242,4.85,2.434,7.297,3.537c1.139,0.515,2.595-0.964,1.45-1.881c-2.616-2.098-5.325-4.093-8.068-6.051
		c1.533-6.396,5.23-11.143,9.553-15.649c3.796,3.749,7.481,7.616,11.068,11.585c-2.819,4.357-4.563,9.56-5.326,14.359
		C127.192,124.949,127.217,125.05,127.223,125.159z M73.27,104.819c0.428-3.038,1.1-5.901,1.934-8.647
		c4.089,2.94,8.232,5.854,12.443,8.672c-1.342,2.761-2.579,5.572-3.72,8.409c-3.998-2.09-7.788-4.562-11.238-7.665
		C72.982,105.453,73.215,105.21,73.27,104.819z M22.936,49.402c-1.924-5.95-1.52-11.481,1.549-16.484
		c5.667,2.65,11.26,5.457,16.798,8.363c-4.17,5.444-7.083,11.741-8.03,18.257c-3.513-2.965-6.942-6.021-10.314-9.138
		C23.027,50.106,23.059,49.782,22.936,49.402z M45.106,43.272c5.545,2.985,10.994,6.137,16.377,9.391
		c-5.284,5.618-9.421,12.278-12.317,19.554c-4.452-3.371-8.832-6.834-13.136-10.389C36.907,54.75,40.094,48.737,45.106,43.272z
		 M65.761,55.25c7.109,4.431,14.039,9.127,20.794,14.053c-5.496,5.952-9.796,13.016-12.534,20.629
		c-1.302-0.865-2.611-1.726-3.895-2.61c-6.143-4.236-12.237-8.591-18.244-13.071C55.398,66.884,60.012,60.581,65.761,55.25z
		 M90.314,72.097c4.269,3.207,8.478,6.489,12.578,9.905c-5.03,5.407-9.259,11.601-12.838,18.185
		c-4.458-2.788-8.913-5.574-13.294-8.432C79.835,84.104,84.485,77.614,90.314,72.097z M105.753,84.469
		c4.302,3.676,8.516,7.452,12.604,11.37c-4.274,4.895-7.564,10.689-9.11,16.809c-5.356-3.711-10.871-7.241-16.42-10.723
		C96.463,95.584,100.727,89.642,105.753,84.469z M129.896,125.571c0.924-4.482,2.457-8.71,5.057-12.455
		c4.877,5.54,9.53,11.305,13.966,17.277c-6.154-2.007-12.575-3.452-19.063-4.726C129.867,125.631,129.889,125.61,129.896,125.571z
		 M112.812,57.145c3.97,3.184,7.79,6.44,11.507,9.714c-0.18,0.027-0.357,0.037-0.544,0.117c-6.76,2.928-12.62,7.008-17.743,11.859
		c-3.944-3.421-7.989-6.715-12.103-9.922c5.516-4.526,11.838-8.364,18.704-11.633C112.708,57.245,112.746,57.187,112.812,57.145z
		 M89.837,40.546c6.668,4.255,13.124,8.88,19.32,13.692c-7.179,2.512-13.653,6.565-19.181,11.653
		c-6.552-4.938-13.296-9.628-20.232-14.051c5.68-4.459,12.278-8.156,19.849-11.142C89.692,40.661,89.75,40.593,89.837,40.546z
		 M64.002,26.609c7.139,3.118,14.152,6.816,20.974,10.923c-7.503,2.521-14.126,6.485-19.753,11.486
		c-5.32-3.272-10.731-6.414-16.249-9.398c4.821-3.925,10.444-6.839,14.774-11.238C64.237,27.886,64.259,27.177,64.002,26.609z
		 M41.254,18.894c7.048,1.644,14.04,4.002,20.924,6.902c-6.433,2.236-12.546,6.343-17.52,11.551
		c-5.596-2.926-11.271-5.731-17.048-8.376c3.797-3.684,8.687-5.254,13.183-7.949C41.553,20.565,41.658,19.555,41.254,18.894z
		 M20.272,16.228c6.251,0.089,12.504,0.863,18.723,2.178c-6.363,0.706-11.662,4.107-15.319,8.816
		c-6.18-2.742-12.437-5.361-18.799-7.795c-0.145-0.056-0.266-0.04-0.402-0.066C4.596,15.095,17.349,16.186,20.272,16.228z
		 M65.544,97.67c-0.638-2.782-1.134-5.541-1.45-8.249c-0.172-1.471-2.597-2.14-2.845-0.385c-0.124,0.876-0.209,1.756-0.279,2.638
		c-1.047-0.093-2.212,0.754-1.738,1.936c0.511,1.272,1.068,2.477,1.644,3.653c0.207,5.066,1.259,10.179,2.903,15.236
		C50.933,98.231,37.551,84.49,25.903,69.167C18.35,59.232,11.877,48.536,7.506,36.821C5.997,32.775,5.157,28.56,4.751,24.29
		c5.483,2.243,10.917,4.615,16.311,7.08c-2.31,4.564-3.269,9.812-2.521,14.914c-2.13-2.058-4.23-4.146-6.285-6.276
		c-0.582-0.604-1.429,0.283-0.906,0.906c2.577,3.068,5.264,6.016,8,8.91c0.055,0.175,0.089,0.353,0.149,0.527
		c0.262,0.76,0.859,1.122,1.487,1.199c3.852,3.986,7.84,7.824,11.948,11.532c-0.039,1.246-0.019,2.494,0.101,3.743
		c0.164,1.719,2.783,1.786,2.73,0c-0.012-0.412,0.022-0.801,0.025-1.205c3.943,3.462,7.979,6.823,12.095,10.098
		c-1.463,4.399-2.509,8.982-3.021,13.705c-0.103,0.947,1.425,1.124,1.641,0.223c1.022-4.266,2.337-8.228,3.881-11.962
		c3.009,2.354,6.042,4.683,9.117,6.966c4.292,3.187,8.676,6.439,13.13,9.675c-0.853,3.127-1.446,6.324-1.75,9.557
		C68.997,102.006,67.205,99.96,65.544,97.67z M128.961,167.239c-27.196-5.207-50.085-31.448-60.012-58.241
		c25.276,26.809,76.229,15.78,103.712,41.155C196.246,171.93,138.905,169.144,128.961,167.239z M181.452,152.465
		c-4.872-7.621-15.746-14.63-23.044-18.28c0.348-0.354,0.602-0.821,0.62-1.451c0.611-20.208-9.358-37.75-24.81-49.528
		C163.622,93.819,184.817,119.993,181.452,152.465z"/>
</g>
<g>
</g>
<g>
</g>
<g>
</g>
<g>
</g>
<g>
</g>
<g>
</g>
<g>
</g>
<g>
</g>
<g>
</g>
<g>
</g>
<g>
</g>
<g>
</g>
<g>
</g>
<g>
</g>
<g>
</g>
</svg>
