<?xml version="1.0" encoding="iso-8859-1"?>
<!-- Generator: Adobe Illustrator 19.0.0, SVG Export Plug-In . SVG Version: 6.00 Build 0)  -->
<svg version="1.1" id="Layer_1" xmlns="http://www.w3.org/2000/svg" xmlns:xlink="http://www.w3.org/1999/xlink" x="0px" y="0px"
	 viewBox="0 0 512.001 512.001" style="enable-background:new 0 0 512.001 512.001;" xml:space="preserve">
<g>
	<g>
		<rect x="240.482" y="368.245" width="15.592" height="15.592"/>
	</g>
</g>
<g>
	<g>
		<path d="M320.242,104.086c-11.085,0-22.059,2.611-32.002,7.577c-7.447-3.727-15.619-6.212-24.254-7.146V87.585
			c0-8.316,7.686-15.948,16.002-15.948V56.045c-5.874,0-11.329,1.539-16.002,4.235V47.828c0-17.775,14.461-32.236,32.237-32.236
			s32.237,14.461,32.237,32.236h15.592C344.051,21.456,322.596,0,296.223,0c-20.339,0-37.743,12.767-44.647,30.704
			c-5.358-4.149-12.076-6.684-19.405-6.684v15.592c9.355,0,16.222,7.434,16.222,15.75v49.154
			c-8.651,0.944-16.844,3.428-24.303,7.171c-9.975-4.981-21.041-7.602-32.144-7.602c-39.618,0-72.039,32.231-72.039,71.849v0.324
			l24.211,288.251c0.183,26.219,21.758,47.492,48.019,47.492c12.008,0,23.241-4.445,31.953-12.406
			c8.493,7.705,19.756,12.406,32.1,12.406c12.341,0,23.603-4.699,32.097-12.4c8.714,7.957,19.951,12.4,31.956,12.4
			c26.26,0,47.645-21.272,47.828-47.491l23.993-287.929l0.027-0.648C392.091,136.317,359.86,104.086,320.242,104.086z
			 M191.891,496.408c-12.243,0-23.03-6.862-28.559-16.94h12.708v-15.592h-16.632v-0.029L135.635,175.62
			c0.168-30.877,25.466-55.943,56.382-55.943c5.586,0,11.265,0.848,16.593,2.493c-13.896,12.316-23.002,29.914-24.127,49.624
			c-0.006,0.103-0.018,0.205-0.024,0.308c-0.068,1.269-0.104,2.547-0.104,3.834v0.324l3.256,39.182h-27.164v15.592h28.46
			l19.401,233.478c0.058,8.008,2.073,15.771,6.01,22.778C208.335,493.136,200.321,496.408,191.891,496.408z M288.402,464.171
			c0,0.531-0.015,1.058-0.041,1.583c-0.002,0.035-0.002,0.07-0.004,0.105c-0.027,0.512-0.067,1.021-0.116,1.527
			c-0.03,0.29-0.069,0.579-0.107,0.868c-0.063,0.501-0.138,0.999-0.226,1.493c-0.117,0.649-0.242,1.295-0.4,1.936
			c-0.006,0.027-0.013,0.054-0.019,0.08c-1.028,4.102-2.889,8.01-5.526,11.553l-1.391,1.867
			c-5.923,6.866-14.678,11.225-24.432,11.225c-9.457,0-17.99-4.094-23.905-10.603l-1.868-2.491
			c-3.68-4.942-5.883-10.597-6.394-16.494c-0.006-0.075-0.011-0.15-0.017-0.225c-0.063-0.805-0.101-1.612-0.101-2.424v-0.324
			l-5.357-64.418h21.989v-15.592h-23.285l-15.387-185.027h13.725v-15.592h-15.023l-0.632-7.598c0.015-2.724,0.235-5.401,0.626-8.023
			c0.048-0.312,0.094-0.624,0.147-0.933c0.062-0.373,0.135-0.743,0.206-1.115c3.03-15.881,12.885-29.999,27.184-38.283l1.718-0.997
			c7.879-4.202,16.864-6.592,26.398-6.592c9.627,0,18.697,2.432,26.631,6.712l1.515,0.877c14.441,8.366,24.326,22.682,27.24,38.756
			c0.031,0.172,0.065,0.342,0.095,0.515c0.07,0.409,0.131,0.818,0.192,1.229c0.082,0.56,0.159,1.123,0.223,1.688
			c0.022,0.186,0.049,0.37,0.069,0.556c0.089,0.852,0.159,1.711,0.21,2.574c0.006,0.107,0.013,0.215,0.018,0.322
			c0.048,0.899,0.079,1.805,0.083,2.714l-7.392,88.677h-24.021v15.592h22.722l-15.308,183.636L288.402,464.171z M353.777,448.283
			h-17.658v15.592h16.373l-0.013,0.295c0,17.776-14.461,32.237-32.237,32.237c-8.399,0-16.259-3.248-22.231-9.054
			c2.831-5.086,4.75-10.742,5.562-16.746c0.013-0.101,0.027-0.203,0.041-0.304c0.104-0.807,0.187-1.618,0.251-2.437
			c0.013-0.178,0.032-0.354,0.044-0.533c0.061-0.935,0.104-1.876,0.11-2.826l20.756-249.069h19.66v-15.592h-18.36l1.939-23.267
			l0.029-0.648c0-1.279-0.042-2.547-0.107-3.809c-0.005-0.095-0.015-0.188-0.02-0.283c-0.068-1.19-0.165-2.371-0.29-3.546
			c-0.006-0.059-0.015-0.119-0.021-0.178c-1.981-18.219-10.798-34.405-23.829-45.947c5.327-1.644,10.881-2.494,16.468-2.494
			c30.916,0,56.087,25.065,56.255,55.943L353.777,448.283z"/>
	</g>
</g>
<g>
	<g>
		<path d="M247.973,463.875H232.38c0,13.513,10.186,24.104,23.699,24.104v-15.592C251.922,472.388,247.973,469.073,247.973,463.875z
			"/>
	</g>
</g>
<g>
	<g>
		<path d="M256.079,136.112v15.592c13.513,0,24.341,10.723,24.341,24.236h15.592C296.013,154.112,277.909,136.112,256.079,136.112z"
			/>
	</g>
</g>
<g>
</g>
<g>
</g>
<g>
</g>
<g>
</g>
<g>
</g>
<g>
</g>
<g>
</g>
<g>
</g>
<g>
</g>
<g>
</g>
<g>
</g>
<g>
</g>
<g>
</g>
<g>
</g>
<g>
</g>
</svg>
