<?xml version="1.0" encoding="iso-8859-1"?>
<!-- Generator: Adobe Illustrator 16.0.0, SVG Export Plug-In . SVG Version: 6.00 Build 0)  -->
<!DOCTYPE svg PUBLIC "-//W3C//DTD SVG 1.1//EN" "http://www.w3.org/Graphics/SVG/1.1/DTD/svg11.dtd">
<svg version="1.1" id="Capa_1" xmlns="http://www.w3.org/2000/svg" xmlns:xlink="http://www.w3.org/1999/xlink" x="0px" y="0px"
	 width="582.326px" height="582.326px" viewBox="0 0 582.326 582.326" style="enable-background:new 0 0 582.326 582.326;"
	 xml:space="preserve">
<g>
	<path d="M354.945,177.544c-0.306,0.306-0.306,0.918-0.612,1.224c-3.978-1.53-8.262-2.754-12.24-3.672
		c0.307-1.53,0-2.754-1.529-4.284c-30.601-29.988-24.48-71.298,5.813-99.144c2.143-1.836,1.836-5.508,0-7.344
		c-6.426-6.426-11.628-13.464-15.912-21.42c-1.529-2.754-4.59-3.06-7.344-1.836c-55.386,24.174-74.97,76.194-78.948,133.416
		c0,1.53,0.918,2.448,2.142,2.754c-0.918,0.306-2.142,0.612-3.06,0.612c0,0,0-0.306-0.306-0.306
		c-50.184-31.824-112.302-49.878-167.076-18.054c-45.594,26.622-68.238,85.068-74.358,134.64
		c-9.792,79.254,26.622,256.122,145.962,209.61c1.224-0.612,2.142-1.53,2.448-2.448c59.976,51.408,174.726,54.162,239.598,7.65
		c120.563,63.954,190.943-108.324,192.78-202.572C584.445,208.451,431.14,67.691,354.945,177.544z M250.293,175.403
		c7.956-51.714,24.174-99.144,73.44-123.012c3.366,5.508,7.038,10.71,11.628,15.3c-28.458,28.764-35.802,73.134-8.262,104.04
		c-25.398-3.978-52.021-1.836-77.418,4.59C249.987,176.321,250.293,176.015,250.293,175.403z M394.726,505.271
		c16.523-12.853,29.376-29.376,36.414-49.267c1.836-5.202-5.509-7.649-8.263-3.672c-60.894,90.576-255.51,116.586-301.41-3.978
		c-1.224-3.366-6.426-2.143-5.508,1.529c5.202,17.748,15.3,33.048,28.152,45.595C37.623,504.354,5.799,400.619,12.225,309.125
		C15.591,262,32.421,213.041,67.611,180.298c48.042-44.676,115.668-24.479,167.994,0.306c-11.934,3.672-23.562,7.956-34.884,13.158
		c-4.284,1.836-1.224,9.18,3.06,7.344c53.55-21.42,110.466-30.6,164.322-5.202c5.813,2.754,11.016-5.508,5.202-8.874
		c-3.061-1.53-6.12-2.754-9.181-4.284c47.124-58.446,112.608-26.01,158.202,17.136c36.72,35.19,50.184,77.112,46.818,126.685
		C562.413,418.673,500.907,539.237,394.726,505.271z"/>
</g>
<g>
</g>
<g>
</g>
<g>
</g>
<g>
</g>
<g>
</g>
<g>
</g>
<g>
</g>
<g>
</g>
<g>
</g>
<g>
</g>
<g>
</g>
<g>
</g>
<g>
</g>
<g>
</g>
<g>
</g>
</svg>
